P1
# Sample PBM image used for Fig. 4
10 7
0 0 0 0 1 1 1 1 0 0
0 0 1 1 1 1 1 1 1 0
0 1 1 1 1 1 1 1 1 1
1 1 1 1 1 1 1 1 1 1
1 1 1 1 1 1 1 1 1 1
1 1 0 0 1 1 1 1 1 0
0 0 0 0 0 1 1 1 0 0
